<?xml version="1.0" encoding="utf-8"?>
<!-- Generator: Adobe Illustrator 17.0.0, SVG Export Plug-In . SVG Version: 6.00 Build 0)  -->
<!DOCTYPE svg PUBLIC "-//W3C//DTD SVG 1.1//EN" "http://www.w3.org/Graphics/SVG/1.1/DTD/svg11.dtd">
<svg version="1.1" id="Layer_1" xmlns="http://www.w3.org/2000/svg" xmlns:xlink="http://www.w3.org/1999/xlink" x="0px" y="0px"
	 width="53px" height="65px" viewBox="0 0 53 65" enable-background="new 0 0 53 65" xml:space="preserve">
<g>
	<path fill="#666666" d="M0.537,55.174c0-0.191,0-0.383,0-0.574c0-15.946,0-31.891,0-47.837c0-2.993,1.732-5.273,4.624-6.043
		c0.502-0.134,1.035-0.209,1.553-0.21c14.129-0.011,28.257-0.016,42.386,0c1.766,0.002,3.398,1.262,3.355,3.251
		C52.45,3.99,52.458,4.22,52.458,4.449c0,14.499,0.002,28.998-0.005,43.497c0,0.615-0.048,1.232-0.115,1.844
		c-0.082,0.743-0.453,1.123-1.206,1.146c-1.867,0.058-3.736,0.098-5.604,0.097c-6.985-0.003-13.97-0.049-20.954-0.035
		c-5.785,0.012-11.57,0.081-17.354,0.133c-2.671,0.024-4.66,1.278-6.125,3.451c-0.145,0.215-0.297,0.426-0.446,0.638
		C0.612,55.205,0.574,55.189,0.537,55.174z M3.562,48.758c0.261-0.06,0.461-0.117,0.666-0.15c1.126-0.18,2.252-0.492,3.381-0.508
		c6.243-0.087,12.487-0.126,18.731-0.135c7.355-0.011,14.711,0.027,22.066,0.043c0.328,0.001,0.655,0,1.026,0
		c0-0.258,0-0.432,0-0.605c0-14.323,0-28.646,0-42.97c0-0.906-0.002-0.907-0.907-0.907c-13.882,0-27.764,0.014-41.647-0.017
		C5.072,3.505,3.534,4.95,3.54,6.81c0.043,13.776,0.023,27.553,0.022,41.329C3.562,48.331,3.562,48.521,3.562,48.758z"/>
	<path fill="#666666" d="M29.982,64.489c-7.213,0-14.426,0.038-21.639-0.025C6.45,64.447,4.694,63.8,3.427,62.262
		c-2.431-2.949-0.983-7.213,2.842-8.293c0.563-0.159,0.762-0.011,0.77,0.578c0.019,1.252,0.009,2.504,0.012,3.756
		c0.003,1.526,0.467,1.996,1.987,1.996c14.038,0.001,28.076,0,42.114,0.001c1.306,0,1.307,0,1.307,1.288
		c0,0.705,0.014,1.412-0.016,2.116c-0.028,0.659-0.182,0.785-0.822,0.785C44.408,64.489,37.195,64.489,29.982,64.489z"/>
	<path fill="#666666" d="M29.834,53.582c0.141,0,0.282,0,0.423,0c6.103,0,12.205-0.001,18.308,0.001
		c1.226,0,1.228,0.006,1.229,1.238c0.001,0.688,0.005,1.376-0.008,2.064c-0.012,0.681-0.121,0.781-0.812,0.805
		c-0.141,0.005-0.282,0.002-0.423,0.002c-12.205,0-24.411,0-36.616,0c-1.868,0-2.054-0.186-2.054-2.057
		c0-0.476,0.016-0.952,0.015-1.428c-0.001-0.426,0.206-0.584,0.625-0.582c1.587,0.007,3.175-0.01,4.762-0.011
		c4.621-0.002,9.242-0.001,13.863-0.001c0.229,0,0.458,0,0.687,0C29.834,53.602,29.834,53.592,29.834,53.582z"/>
	<path fill="#0b80ba" d="M26.543,30.661c5.784,0,11.568,0,17.352,0c0.975,0,0.987,0.016,0.993,1.013
		c0.004,0.705,0.01,1.41,0.024,2.115c0.013,0.642-0.16,0.832-0.856,0.838c-1.27,0.01-2.539-0.001-3.809-0.001
		c-10.281,0-20.561,0-30.842,0c-0.106,0-0.212,0-0.317,0c-0.837-0.004-0.901-0.065-0.906-0.898
		c-0.004-0.758-0.008-1.517,0.002-2.275c0.01-0.713,0.09-0.79,0.795-0.79C14.834,30.661,20.689,30.661,26.543,30.661z"/>
	<path fill="#0b80ba" d="M26.519,39.013c3.825,0,7.65-0.001,11.475,0.001c0.821,0,0.83,0.007,0.833,0.822
		c0.005,1.075,0.002,2.15-0.004,3.226c-0.004,0.653-0.062,0.714-0.737,0.719c-1.287,0.011-2.573,0.013-3.86,0.013
		c-6.24,0.001-12.48,0.003-18.719-0.001c-1.555-0.001-1.314,0.025-1.332-1.354c-0.011-0.864-0.003-1.727-0.002-2.591
		c0.001-0.83,0.003-0.833,0.818-0.834C18.834,39.012,22.676,39.013,26.519,39.013z"/>
	<path fill="#0b80ba" d="M30.418,8.272c0,4.543,0,9.06,0,13.573c-0.047,0-0.093,0.014-0.11-0.002
		c-1.668-1.663-3.71-2.647-5.955-3.243c-0.423-0.112-0.556-0.292-0.551-0.722c0.023-1.904,0.018-3.809,0.007-5.713
		c-0.002-0.323,0.055-0.51,0.414-0.602c2.268-0.582,4.334-1.553,6.024-3.222C30.28,8.31,30.337,8.304,30.418,8.272z"/>
	<path fill="#0b80ba" d="M23.002,18.139c-2.088-0.164-4.135-0.325-6.223-0.49c0-1.709,0-3.46,0-5.188
		c2.066-0.151,4.126-0.302,6.223-0.455C23.002,14.027,23.002,16.111,23.002,18.139z"/>
	<path fill="#0b80ba" d="M31.23,15.065c0-2.345,0-4.69,0.001-7.035c0-0.158-0.046-0.355,0.03-0.466
		c0.112-0.167,0.304-0.359,0.48-0.378c0.141-0.016,0.355,0.181,0.45,0.337c0.082,0.133,0.052,0.341,0.052,0.516
		c0.003,1.552,0.01,3.103-0.004,4.655c-0.003,0.336,0.105,0.54,0.39,0.734c1.213,0.827,1.21,2.435-0.003,3.275
		c-0.281,0.195-0.389,0.405-0.386,0.739c0.014,1.534,0.007,3.068,0.007,4.602c0,0.141,0.05,0.317-0.015,0.416
		c-0.13,0.198-0.325,0.355-0.492,0.529c-0.168-0.172-0.424-0.319-0.482-0.523c-0.084-0.294-0.026-0.629-0.026-0.946
		C31.23,19.367,31.23,17.216,31.23,15.065z"/>
	<path fill="#0b80ba" d="M18.525,18.482c1.157,0.103,2.285,0.203,3.515,0.313c-0.521,0.888-0.186,1.628,0.215,2.346
		c0.391,0.7,0.801,1.39,1.229,2.068c0.287,0.456,0.296,0.856-0.148,1.152c-0.416,0.277-0.894,0.49-1.374,0.63
		c-0.184,0.054-0.533-0.109-0.663-0.282c-0.368-0.488-0.729-1.003-0.97-1.56c-0.626-1.45-1.188-2.928-1.772-4.397
		C18.532,18.691,18.54,18.617,18.525,18.482z"/>
	<path fill="#0b80ba" d="M38.936,15.986c-0.008,1.616-0.898,3.701-2.545,5.479c-0.095,0.102-0.201,0.24-0.32,0.262
		c-0.184,0.033-0.45,0.047-0.558-0.057c-0.111-0.108-0.133-0.384-0.085-0.557c0.046-0.17,0.222-0.309,0.351-0.453
		c2.879-3.212,2.903-7.882,0.056-11.129c-0.128-0.146-0.313-0.273-0.368-0.442c-0.061-0.188-0.082-0.519,0.024-0.6
		c0.148-0.113,0.437-0.093,0.649-0.048c0.131,0.027,0.235,0.201,0.342,0.317C38.083,10.491,38.919,12.676,38.936,15.986z"/>
	<path fill="#0b80ba" d="M35.155,15.238c-0.002-1.551-0.465-2.755-1.344-3.807c-0.146-0.174-0.313-0.35-0.39-0.555
		c-0.048-0.127,0.007-0.36,0.104-0.457c0.099-0.099,0.325-0.151,0.46-0.11c0.172,0.052,0.329,0.199,0.457,0.339
		c1.882,2.056,2.693,6.111-0.068,8.922c-0.262,0.267-0.545,0.438-0.864,0.141c-0.32-0.299-0.107-0.574,0.119-0.819
		C34.63,17.811,35.147,16.54,35.155,15.238z"/>
	<path fill="#0b80ba" d="M15.928,12.979c0,1.385,0,2.768,0,4.151c-0.852,0.077-1.68-0.75-1.749-1.73
		C14.079,13.978,14.757,13.025,15.928,12.979z"/>
</g>
</svg>
