<?xml version="1.0" encoding="utf-8"?>
<!-- Generator: Adobe Illustrator 17.0.0, SVG Export Plug-In . SVG Version: 6.00 Build 0)  -->
<!DOCTYPE svg PUBLIC "-//W3C//DTD SVG 1.1//EN" "http://www.w3.org/Graphics/SVG/1.1/DTD/svg11.dtd">
<svg version="1.1" id="Layer_1" xmlns="http://www.w3.org/2000/svg" xmlns:xlink="http://www.w3.org/1999/xlink" x="0px" y="0px"
	 width="65px" height="65px" viewBox="0 0 65 65" enable-background="new 0 0 65 65" xml:space="preserve">
<g>
	<path fill="#666666" d="M42.963,17.706c-0.974,0.228-1.897,0.444-2.905,0.681c0-4.939,0-9.859,0-14.826c-8.13,0-16.175,0-24.328,0
		c0,0.201,0,0.423,0,0.644c-0.001,3.222,0,6.444-0.002,9.666c-0.001,1.307-0.546,1.853-1.851,1.854
		c-3.201,0.002-6.402,0.002-9.602,0.002c-0.228,0-0.455,0-0.72,0c0,12.62,0,25.179,0,37.782c12.142,0,24.272,0,36.472,0
		c0-2.118,0-4.206,0-6.343c0.955,0.202,1.838,0.374,2.711,0.59c0.116,0.029,0.252,0.281,0.253,0.43
		c0.012,2.331,0.024,4.663-0.013,6.994c-0.014,0.866-0.676,1.373-1.658,1.375c-3.858,0.005-7.716,0.004-11.574,0.004
		c-9.115,0-18.23-0.002-27.345-0.002c-1.347,0-1.887-0.537-1.888-1.883c0-13.354,0.002-26.709-0.009-40.063
		c-0.001-0.684,0.207-1.21,0.694-1.694C5.121,9.016,9.032,5.103,12.935,1.182c0.466-0.468,0.972-0.682,1.635-0.681
		c8.882,0.012,17.763,0.008,26.645,0.009c1.192,0,1.778,0.521,1.781,1.651c0.01,5.066,0.004,10.132,0.002,15.198
		C42.997,17.462,42.977,17.566,42.963,17.706z M12.704,6c-2.206,2.206-4.484,4.484-6.668,6.667c2.078,0,4.363,0,6.668,0
		C12.704,10.357,12.704,8.099,12.704,6z"/>
	<path fill="#666666" d="M44.966,44.695c-6.474,0.053-11.818-5.13-11.97-11.617c-0.151-6.429,4.646-12.225,11.977-12.253
		c6.643-0.025,11.741,5.114,11.903,11.624C57.054,39.664,51.246,44.735,44.966,44.695z M44.99,23.703
		c-4.306-0.217-9.07,3.269-9.164,8.98c-0.085,5.13,4.062,9.244,9.248,9.184c4.817-0.056,8.94-3.786,8.968-9.077
		C54.071,27.29,49.506,23.571,44.99,23.703z"/>
	<path fill="#666666" d="M54.518,46.305c1.061,0.015,1.885,0.482,2.412,1.388c2.405,4.135,4.803,8.276,7.177,12.429
		c0.812,1.421,0.303,3.183-1.075,3.974c-1.457,0.837-3.193,0.339-4.091-1.204c-1.67-2.873-3.323-5.757-4.982-8.637
		c-0.697-1.211-1.421-2.408-2.082-3.637C50.781,48.584,52.211,46.271,54.518,46.305z"/>
	<path fill="#0b80ba" d="M14.038,23.373c2.219,0.001,4.081,1.639,4.355,3.832c0.269,2.149-1.139,4.24-3.222,4.785
		c-2.152,0.564-4.397-0.515-5.189-2.579c-0.218-0.568-0.481-0.728-1.045-0.705c-0.806,0.033-1.212-0.326-1.212-0.957
		c0-0.629,0.427-1.034,1.204-0.98c0.618,0.043,0.856-0.19,1.071-0.745C10.635,24.382,12.232,23.373,14.038,23.373z M14.06,30.153
		c1.347-0.01,2.384-1.079,2.37-2.442c-0.014-1.337-1.122-2.424-2.441-2.394c-1.331,0.03-2.403,1.139-2.382,2.463
		C11.63,29.127,12.701,30.164,14.06,30.153z"/>
	<path fill="#0b80ba" d="M17.03,48.801c-2.689,0-5.378,0.002-8.067-0.001c-0.815-0.001-1.221-0.321-1.234-0.952
		c-0.014-0.663,0.408-1.028,1.234-1.029c5.378-0.003,10.756-0.002,16.134,0.002c0.802,0.001,1.222,0.338,1.237,0.961
		c0.015,0.66-0.41,1.019-1.236,1.02c-2.689,0.004-5.378,0.002-8.067,0.002C17.03,48.803,17.03,48.802,17.03,48.801z"/>
	<path fill="#0b80ba" d="M15.467,20.084c2.161,0,4.322-0.002,6.483,0.001c0.778,0.001,1.164,0.309,1.188,0.925
		c0.025,0.642-0.384,1.037-1.159,1.038c-4.364,0.009-8.729,0.009-13.093,0.002c-0.745-0.001-1.149-0.366-1.156-0.978
		c-0.007-0.648,0.391-0.986,1.19-0.987C11.103,20.081,13.285,20.084,15.467,20.084z"/>
	<path fill="#0b80ba" d="M15.18,33.451c2.099,0,4.198-0.002,6.296,0.001c0.838,0.001,1.266,0.344,1.259,0.998
		c-0.007,0.641-0.446,0.982-1.287,0.983c-4.155,0.002-8.31,0.003-12.465,0c-0.84-0.001-1.26-0.347-1.253-1.008
		c0.007-0.656,0.418-0.971,1.281-0.972C11.067,33.45,13.124,33.451,15.18,33.451z"/>
	<path fill="#0b80ba" d="M26.685,41.129c0.555,0.482,0.987,0.824,1.38,1.207c0.511,0.5,0.55,1.091,0.141,1.508
		c-0.41,0.418-1.011,0.379-1.515-0.104c-0.382-0.366-0.757-0.739-1.136-1.108c-0.014-0.014-0.038-0.019-0.212-0.184
		c-0.365,0.433-0.708,0.888-1.101,1.294c-0.478,0.493-1.113,0.512-1.513,0.096c-0.381-0.396-0.351-1.009,0.115-1.469
		c0.405-0.399,0.849-0.758,1.381-1.227c-0.549-0.497-0.989-0.862-1.391-1.266c-0.458-0.459-0.482-1.08-0.099-1.472
		c0.387-0.397,1.008-0.386,1.469,0.068c0.406,0.4,0.771,0.839,1.271,1.389c0.466-0.517,0.828-0.952,1.225-1.351
		c0.489-0.491,1.111-0.515,1.512-0.095c0.391,0.41,0.368,0.993-0.109,1.465C27.699,40.279,27.251,40.634,26.685,41.129z"/>
	<path fill="#0b80ba" d="M30.986,26.799c-0.196,0.582-0.342,1.111-0.562,1.608c-0.066,0.151-0.334,0.3-0.511,0.301
		c-2.58,0.019-5.159,0.017-7.739,0.01c-0.649-0.002-1.039-0.356-1.065-0.921c-0.028-0.604,0.345-1.008,1.031-1.02
		c1.48-0.027,2.96-0.021,4.44-0.023c1.247-0.001,2.495,0.006,3.742,0.012C30.528,26.767,30.733,26.785,30.986,26.799z"/>
	<path fill="#0b80ba" d="M31.471,20.084c1.06,0,2.119-0.007,3.179,0.006c0.226,0.003,0.475,0.029,0.671,0.129
		c0.383,0.195,0.491,0.385,0.107,0.802c-0.802,0.871-1.727,1.131-2.88,1.054c-1.329-0.089-2.669-0.018-4.004-0.02
		c-0.211,0-0.427,0.005-0.632-0.037c-0.55-0.111-0.854-0.445-0.827-1.025c0.024-0.522,0.389-0.892,0.954-0.902
		C29.182,20.07,30.327,20.084,31.471,20.084z"/>
	<path fill="#0b80ba" d="M11.301,40.158c0.783-0.001,1.566-0.012,2.349,0.002c0.708,0.013,1.09,0.359,1.097,0.953
		c0.007,0.602-0.379,0.977-1.07,0.982c-1.629,0.012-3.259,0.012-4.888,0C8.1,42.09,7.723,41.716,7.73,41.106
		c0.007-0.606,0.376-0.936,1.096-0.945C9.65,40.15,10.476,40.158,11.301,40.158z"/>
	<path fill="#0b80ba" d="M33.027,48.801c-0.571-0.001-1.142,0.011-1.712-0.004c-0.634-0.017-1.031-0.389-1.046-0.95
		c-0.016-0.591,0.382-1.009,1.046-1.021c1.141-0.022,2.283-0.02,3.424-0.003c0.657,0.01,1.088,0.427,1.09,0.994
		c0.002,0.57-0.432,0.97-1.09,0.983C34.168,48.811,33.597,48.802,33.027,48.801z"/>
	<path fill="#666666" d="M53.61,44.62c-0.076,0.111-0.184,0.415-0.4,0.562c-0.575,0.392-1.183,0.741-1.802,1.061
		c-0.526,0.272-1.006,0.111-1.255-0.349c-0.247-0.458-0.105-0.919,0.41-1.232c0.579-0.35,1.158-0.703,1.762-1.008
		C52.962,43.333,53.613,43.752,53.61,44.62z"/>
	<path fill="#0b80ba" d="M29.804,33.454c0.068,0.699,0.126,1.301,0.191,1.968c-0.852,0-1.652,0.041-2.445-0.014
		c-0.543-0.038-0.874-0.396-0.881-0.975c-0.007-0.516,0.355-0.945,0.886-0.97C28.288,33.429,29.024,33.454,29.804,33.454z"/>
	<path fill="#0b80ba" d="M32.964,42.087c-0.863,0-1.63,0.09-2.354-0.045c-0.286-0.053-0.685-0.626-0.66-0.931
		c0.029-0.337,0.43-0.8,0.769-0.916c0.565-0.193,1.144-0.089,1.431,0.635C32.314,41.245,32.639,41.597,32.964,42.087z"/>
	<path fill="#0b80ba" d="M19.919,42.097c-0.843-0.005-1.251-0.337-1.234-1.001c0.017-0.646,0.427-0.942,1.298-0.938
		c0.421,0.002,1.101,0.637,1.069,0.998C21.013,41.583,20.392,42.1,19.919,42.097z"/>
	<path fill="#0b80ba" d="M48.189,31.715c0.028,1.385-0.35,2.458-1.445,3.174c-0.668,0.438-1.403,0.577-2.184,0.511
		c-1.637-0.139-2.624-1.318-3.005-3.727c-0.601,0.518-1.151,0.955-1.655,1.441c-0.333,0.322-0.59,0.72-0.894,1.073
		c-0.4,0.465-0.855,0.534-1.282,0.212c-0.44-0.333-0.528-0.77-0.159-1.277c2.005-2.756,4.591-4.477,8.129-4.186
		c2.494,0.206,4.443,1.536,6.036,3.413c0.219,0.258,0.438,0.524,0.604,0.817c0.254,0.449,0.259,0.906-0.192,1.248
		c-0.458,0.347-0.872,0.199-1.237-0.183c-0.657-0.688-1.304-1.385-1.975-2.059C48.766,32.006,48.524,31.917,48.189,31.715z"/>
</g>
</svg>
