<?xml version="1.0" encoding="utf-8"?>
<!-- Generator: Adobe Illustrator 17.0.0, SVG Export Plug-In . SVG Version: 6.00 Build 0)  -->
<!DOCTYPE svg PUBLIC "-//W3C//DTD SVG 1.1//EN" "http://www.w3.org/Graphics/SVG/1.1/DTD/svg11.dtd">
<svg version="1.1" id="Layer_1" xmlns="http://www.w3.org/2000/svg" xmlns:xlink="http://www.w3.org/1999/xlink" x="0px" y="0px"
	 width="57px" height="65px" viewBox="0 0 57 65" enable-background="new 0 0 57 65" xml:space="preserve">
<g>
	<path fill="#666666" d="M16.577,11.011c6.883,0,13.723,0,20.613,0c0,1.017,0,1.973,0,3.012c-6.866,0-13.721,0-20.665,0
		c0,0.316,0,0.55,0,0.784c0,13.298,0.001,26.596-0.002,39.893c0,1.035,0.06,2.079-0.058,3.101c-0.151,1.312-0.761,2.474-1.618,3.628
		c7.495,0,14.894,0,22.343,0c0,1.054,0,2.03,0,3.07c-0.814,0-1.604,0-2.394,0c-8.703-0.001-17.406,0.003-26.11-0.004
		c-4.291-0.004-7.649-2.856-8.245-7.087c-0.165-1.171-0.078-2.381-0.079-3.573C0.358,38.881,0.361,23.926,0.359,8.972
		C0.358,4.279,3.697,0.68,8.227,0.506c4.763-0.183,8.713,3.929,8.354,8.682C16.541,9.756,16.577,10.329,16.577,11.011z
		 M13.492,56.368c0.323-2.251-1.814-5.069-4.939-5.107c-2.855-0.034-5.142,2.245-5.155,5.098c-0.012,2.782,2.253,5.087,5.014,5.102
		C11.314,61.477,13.476,59.309,13.492,56.368z"/>
	<path fill="#0b80ba" d="M38.587,15.837c0.683,0,1.318,0,2.033,0c0-2.022,0-3.995,0-6.018c1.721,0,3.363,0,5.077,0
		c0,1.981,0,3.957,0,5.997c0.723,0,1.378,0,2.078,0c0,12.691,0,25.316,0,37.999c-3.038,0-6.09,0-9.188,0
		C38.587,41.182,38.587,28.56,38.587,15.837z M44.451,15.796c0-1.653,0-3.224,0-4.79c-0.886,0-1.713,0-2.553,0
		c0,1.616,0,3.188,0,4.824c0.675,0,1.309,0.003,1.942-0.001C44.034,15.827,44.227,15.808,44.451,15.796z"/>
	<path fill="#666666" d="M53.61,14.053c-1.923,0-3.795,0-5.721,0c0-1.01,0-1.97,0-2.988c2.903,0,5.821,0,8.771,0
		c0,17.804,0,35.573,0,53.389c-4.471,0-8.92,0-13.42,0c0-0.967,0-1.943,0-2.98c3.45,0,6.885,0,10.37,0
		C53.61,45.659,53.61,29.903,53.61,14.053z"/>
	<path fill="#0b80ba" d="M27.166,20.792c0,0.816,0,1.584,0,2.434c1.885,0,3.726,0,5.62,0c0,0.439,0,0.797,0,1.231
		c-1.847,0-3.689,0-5.589,0c0,0.859,0,1.646,0,2.513c-0.859,0-1.663,0-2.545,0c0,3.619,0,7.16,0,10.734c-0.424,0-0.768,0-1.185,0
		c0-3.55,0-7.092,0-10.686c-0.857,0-1.644,0-2.488,0c0-2.09,0-4.129,0-6.226C22.999,20.792,25.036,20.792,27.166,20.792z"/>
	<path fill="#0b80ba" d="M37.204,50.103c0,0.465,0,0.81,0,1.224c-3.335,0-6.637,0-10.026,0c0,0.869,0,1.672,0,2.508
		c-2.109,0-4.13,0-6.204,0c0-2.068,0-4.124,0-6.218c2.043,0,4.064,0,6.179,0c0,0.811,0,1.611,0,2.486
		C30.546,50.103,33.845,50.103,37.204,50.103z"/>
	<path fill="#0b80ba" d="M40.067,54.811c1.938,0,3.726,0,5.513,0c0.196,0,0.393,0,0.701,0c-1.043,2.126-2.047,4.17-3.108,6.331
		C42.116,58.987,41.121,56.961,40.067,54.811z"/>
	<path fill="#0b80ba" d="M8.465,59.062C7,59.057,5.792,57.825,5.801,56.346c0.009-1.47,1.246-2.7,2.701-2.686
		c1.459,0.014,2.693,1.27,2.675,2.722C11.16,57.857,9.936,59.067,8.465,59.062z"/>
</g>
</svg>
