<?xml version="1.0" encoding="utf-8"?>
<!-- Generator: Adobe Illustrator 17.0.0, SVG Export Plug-In . SVG Version: 6.00 Build 0)  -->
<!DOCTYPE svg PUBLIC "-//W3C//DTD SVG 1.1//EN" "http://www.w3.org/Graphics/SVG/1.1/DTD/svg11.dtd">
<svg version="1.1" id="Layer_1" xmlns="http://www.w3.org/2000/svg" xmlns:xlink="http://www.w3.org/1999/xlink" x="0px" y="0px"
	 width="47px" height="65px" viewBox="0 0 47 65" enable-background="new 0 0 47 65" xml:space="preserve">
<g>
	<g>
		<path fill="#666666" d="M32.94,61.07c0-0.241,0-0.456,0-0.672c0-1.731,0.003-3.462,0-5.193c-0.004-2.289,1.042-3.314,3.35-3.3
			c2.108,0.012,4.216,0.007,6.324,0.007c0.196,0,0.393-0.021,0.633-0.035c0-15.017,0-30.006,0-45.083c-2.804,0-5.607,0-8.452,0
			c0-0.962,0-1.835,0-2.765c0.259-0.014,0.496-0.036,0.733-0.037c2.463-0.002,4.929,0.062,7.389-0.02
			c2.057-0.068,3.176,1.187,3.172,3.173c-0.041,17.331-0.025,34.663-0.026,51.995c0,0.621,0.003,1.243-0.001,1.864
			c-0.012,1.881-1.085,2.961-2.986,2.955c-3.749-0.013-7.498-0.068-11.247-0.073c-9.542-0.012-19.085-0.007-28.627-0.005
			c-2.246,0.001-3.199-0.942-3.199-3.186C0.004,42.809,0.005,24.922,0,7.036c0-0.8,0.053-1.614,0.683-2.146
			c0.465-0.392,1.093-0.81,1.661-0.827c2.904-0.086,5.812-0.047,8.719-0.048c0.06,0,0.121,0.04,0.217,0.073c0,0.856,0,1.712,0,2.662
			c-2.817,0-5.62,0-8.465,0c0,18.148,0,36.202,0,54.321C12.833,61.07,22.845,61.07,32.94,61.07z M43.013,54.27
			c-2.014,0-3.936-0.103-5.84,0.042c-1.001,0.076-1.775,0.911-1.869,1.922c-0.139,1.503-0.036,3.028-0.036,4.661
			C37.851,58.685,40.385,56.518,43.013,54.27z"/>
		<path fill="#666666" d="M23.028,7.962c-2.84,0-5.679-0.017-8.519,0.013c-0.614,0.006-0.828-0.176-0.798-0.791
			c0.047-0.971-0.001-1.947,0.039-2.919c0.062-1.502,0.97-2.379,2.505-2.432c0.842-0.029,1.686-0.017,2.529-0.002
			c0.386,0.007,0.544-0.133,0.58-0.533c0.089-0.999,0.458-1.328,1.443-1.333c1.486-0.008,2.973-0.006,4.459,0.001
			c0.965,0.004,1.346,0.323,1.42,1.276c0.037,0.472,0.234,0.604,0.67,0.589c0.642-0.023,1.286-0.002,1.93-0.002
			c2.152-0.002,3.089,0.904,3.133,3.051c0.015,0.732,0.002,1.464,0,2.196c-0.002,0.797-0.09,0.889-0.872,0.889
			c-2.84,0.001-5.679,0.001-8.519,0.001C23.028,7.963,23.028,7.962,23.028,7.962z"/>
		<path fill="#0b80ba" d="M23.117,40.165c4.235,0,8.471-0.004,12.706,0.003c0.988,0.001,1.503,0.572,1.396,1.501
			c-0.076,0.661-0.565,1.074-1.361,1.08c-2.306,0.017-4.612,0.016-6.918,0.017c-6.031,0.001-12.063,0-18.094-0.001
			c-0.222,0-0.444,0.005-0.665-0.009c-0.867-0.053-1.37-0.545-1.349-1.312c0.021-0.788,0.523-1.279,1.38-1.282
			c2.838-0.012,5.677-0.005,8.515-0.005c1.464,0,2.927,0,4.391,0C23.117,40.16,23.117,40.163,23.117,40.165z"/>
		<path fill="#0b80ba" d="M23.025,46.552c4.237,0,8.473-0.001,12.71,0.001c0.909,0,1.43,0.408,1.492,1.159
			c0.075,0.91-0.456,1.441-1.472,1.444c-2.551,0.008-5.102,0.009-7.652,0.008c-5.767-0.002-11.534-0.007-17.301-0.011
			c-0.266,0-0.533,0.005-0.798-0.016c-0.732-0.058-1.192-0.594-1.169-1.344c0.023-0.718,0.486-1.214,1.213-1.225
			c1.486-0.022,2.972-0.017,4.458-0.018c2.839-0.002,5.678,0,8.518,0C23.025,46.551,23.025,46.551,23.025,46.552z"/>
	</g>
	<g>
		<path fill="#0b80ba" d="M26.716,29.73c-2.458,0-4.878,0-7.291,0c-0.017-0.03-0.036-0.049-0.033-0.062
			c0.108-0.529-0.18-0.792-0.59-1.079c-2.436-1.703-3.554-4.678-2.902-7.607c0.626-2.813,2.962-5.049,5.82-5.569
			c4.56-0.83,8.76,2.717,8.653,7.352c-0.058,2.538-1.191,4.538-3.288,5.97c-0.281,0.192-0.425,0.373-0.371,0.705
			C26.727,29.523,26.716,29.609,26.716,29.73z M22.935,24.532c-0.712-0.715-1.396-1.406-2.084-2.093
			c-0.37-0.37-0.713-0.372-1.064-0.018c-0.337,0.34-0.332,0.687,0.025,1.046c0.747,0.75,1.498,1.496,2.244,2.247
			c0.288,0.289,0.566,0.587,0.853,0.885c1.114-1.107,2.199-2.177,3.272-3.258c0.197-0.199,0.197-0.509,0.055-0.746
			c-0.303-0.505-0.796-0.571-1.212-0.157C24.337,23.125,23.652,23.814,22.935,24.532z"/>
		<path fill="#0b80ba" d="M19.39,34.156c2.45,0,4.871,0,7.315,0c-0.003,0.652-0.24,1.178-0.721,1.592
			c-0.396,0.341-0.865,0.546-1.381,0.558c-1.04,0.024-2.082,0.042-3.121-0.003c-1.129-0.049-2.029-0.924-2.092-1.949
			C19.387,34.299,19.39,34.242,19.39,34.156z"/>
		<path fill="#0b80ba" d="M26.703,31.229c0,0.482,0,0.946,0,1.434c-2.431,0-4.857,0-7.301,0c0-0.477,0-0.947,0-1.434
			C21.83,31.229,24.249,31.229,26.703,31.229z"/>
		<path fill="#0b80ba" d="M24.193,12c0,0.276,0.006,0.553-0.001,0.829c-0.016,0.62-0.424,0.998-1.076,1.003
			c-0.682,0.006-1.108-0.353-1.126-0.979c-0.017-0.572-0.016-1.144,0-1.716c0.018-0.632,0.446-0.979,1.159-0.969
			c0.631,0.009,1.031,0.391,1.043,1.002C24.198,11.447,24.193,11.724,24.193,12z"/>
		<path fill="#0b80ba" d="M12.428,21.481c0.276,0,0.553-0.006,0.83,0.002c0.573,0.015,0.969,0.411,0.984,0.974
			c0.02,0.756-0.296,1.195-0.928,1.222c-0.6,0.026-1.202,0.027-1.802,0.001c-0.619-0.026-0.954-0.477-0.936-1.196
			c0.015-0.578,0.42-0.99,0.994-1.002C11.856,21.475,12.142,21.48,12.428,21.481z"/>
		<path fill="#0b80ba" d="M14.539,18.819c-0.168-0.058-0.349-0.093-0.503-0.178c-0.484-0.266-0.962-0.544-1.436-0.828
			c-0.56-0.335-0.669-0.866-0.315-1.474c0.338-0.581,0.864-0.739,1.427-0.42c0.481,0.272,0.961,0.545,1.435,0.83
			c0.416,0.25,0.607,0.696,0.449,1.127C15.407,18.392,15.125,18.775,14.539,18.819z"/>
		<path fill="#0b80ba" d="M19.309,14.078c-0.031,0.496-0.392,0.905-0.962,1.068c-0.423,0.121-0.857-0.052-1.102-0.46
			c-0.294-0.49-0.581-0.985-0.858-1.485c-0.291-0.527-0.116-1.048,0.445-1.376c0.586-0.343,1.128-0.255,1.446,0.263
			c0.309,0.503,0.6,1.018,0.884,1.536C19.237,13.76,19.261,13.925,19.309,14.078z"/>
		<path fill="#0b80ba" d="M31.614,18.89c-0.501-0.025-0.909-0.373-1.081-0.946c-0.131-0.435,0.044-0.873,0.465-1.123
			c0.483-0.287,0.969-0.57,1.46-0.842c0.539-0.299,1.071-0.123,1.399,0.447c0.346,0.601,0.24,1.13-0.304,1.456
			c-0.482,0.289-0.969,0.57-1.462,0.84C31.945,18.802,31.773,18.835,31.614,18.89z"/>
		<path fill="#0b80ba" d="M12.039,28.237c0-0.375,0.16-0.664,0.481-0.853c0.492-0.291,0.986-0.58,1.486-0.856
			c0.543-0.3,1.073-0.113,1.411,0.483c0.327,0.575,0.207,1.109-0.33,1.43c-0.45,0.268-0.907,0.526-1.362,0.786
			C12.932,29.68,12.049,29.162,12.039,28.237z"/>
		<path fill="#0b80ba" d="M34.006,28.165c0.008,1.064-0.882,1.596-1.691,1.136c-0.447-0.254-0.893-0.512-1.336-0.774
			c-0.555-0.328-0.681-0.863-0.346-1.447c0.35-0.61,0.867-0.778,1.438-0.458c0.482,0.27,0.96,0.548,1.437,0.827
			C33.828,27.637,34,27.917,34.006,28.165z"/>
		<path fill="#0b80ba" d="M26.855,14.101c0.061-0.167,0.103-0.345,0.187-0.5c0.262-0.476,0.535-0.945,0.812-1.412
			c0.326-0.55,0.869-0.674,1.449-0.34c0.608,0.35,0.775,0.867,0.455,1.439c-0.265,0.474-0.539,0.943-0.815,1.411
			c-0.253,0.429-0.679,0.614-1.111,0.492C27.244,15.024,26.886,14.616,26.855,14.101z"/>
		<path fill="#0b80ba" d="M33.679,23.769c-0.295,0-0.591,0.007-0.886-0.001c-0.571-0.016-0.95-0.442-0.953-1.063
			c-0.003-0.676,0.353-1.109,0.948-1.123c0.591-0.013,1.182-0.012,1.773,0c0.532,0.01,0.901,0.392,0.946,0.917
			c0.08,0.921-0.468,1.341-1.199,1.275c-0.208-0.019-0.419-0.003-0.629-0.003C33.679,23.77,33.679,23.77,33.679,23.769z"/>
	</g>
</g>
</svg>
