<?xml version="1.0" encoding="utf-8"?>
<!-- Generator: Adobe Illustrator 17.0.0, SVG Export Plug-In . SVG Version: 6.00 Build 0)  -->
<!DOCTYPE svg PUBLIC "-//W3C//DTD SVG 1.1//EN" "http://www.w3.org/Graphics/SVG/1.1/DTD/svg11.dtd">
<svg version="1.1" id="Layer_1" xmlns="http://www.w3.org/2000/svg" xmlns:xlink="http://www.w3.org/1999/xlink" x="0px" y="0px"
	 width="65px" height="65px" viewBox="0 0 65 65" enable-background="new 0 0 65 65" xml:space="preserve">
<g>
	<path fill="#666666" d="M32.512,4.05c0.032-0.052,0.054-0.095,0.083-0.132c1.371-1.679,3.126-2.723,5.235-3.201
		c0.616-0.14,1.227-0.218,1.86-0.217c5.885,0.009,11.769,0.005,17.654,0.005c0.939,0,1.666,0.591,1.9,1.508
		c0.116,0.457,0.132,0.913,0.121,1.378c-0.008,0.373,0.025,0.747,0.04,1.121c0.007,0.166,0.099,0.21,0.256,0.208
		c0.853-0.013,1.706-0.022,2.56-0.023c0.464,0,0.875,0.146,1.173,0.521c0.058,0.073,0.079,0.179,0.103,0.274
		C63.512,5.55,63.5,5.614,63.5,5.676c0,17.156-0.001,34.311,0.008,51.467c0,0.429-0.192,0.699-0.53,0.859
		c-0.257,0.121-0.56,0.2-0.843,0.202c-2.089,0.013-4.178-0.001-6.267-0.002c-2.253-0.001-4.506,0.002-6.758,0.003
		c-1.966,0.001-3.933,0.046-5.898-0.011c-1.334-0.038-2.563,0.272-3.768,0.781c-2.027,0.857-3.711,2.169-5.124,3.846
		c-0.435,0.517-0.892,1.015-1.334,1.526c-0.088,0.102-0.187,0.124-0.316,0.142c-0.381,0.052-0.663-0.078-0.9-0.374
		c-0.341-0.426-0.703-0.834-1.055-1.251c-1.632-1.932-3.597-3.389-6.007-4.209c-0.971-0.33-1.97-0.479-2.995-0.477
		C15.48,58.191,9.248,58.203,3.015,58.21c-0.236,0-0.482-0.018-0.707-0.083c-0.189-0.055-0.371-0.17-0.528-0.294
		c-0.199-0.156-0.285-0.365-0.285-0.64c0.006-17.197,0.005-34.393,0-51.59c0-0.213,0.068-0.362,0.214-0.501
		c0.305-0.291,0.674-0.406,1.083-0.406c0.839,0.002,1.679,0.006,2.518,0.02c0.175,0.003,0.275-0.051,0.28-0.228
		c0.015-0.496,0.032-0.993,0.035-1.49c0.004-0.671,0.139-1.295,0.574-1.832C6.546,0.737,6.97,0.502,7.535,0.503
		c5.509,0.005,11.018-0.009,16.527,0.018c0.665,0.003,1.333,0.189,1.992,0.325c1.256,0.259,2.486,0.609,3.638,1.192
		c0.955,0.483,1.828,1.084,2.61,1.817C32.361,3.909,32.42,3.964,32.512,4.05z M7.706,51.909c0.101,0.005,0.174,0.012,0.247,0.012
		c0.464,0,0.928,0,1.393-0.004c4.327-0.035,8.655-0.143,12.981,0.045c1.052,0.046,2.089,0.177,3.119,0.403
		c2.624,0.577,4.795,1.863,6.422,4.025c0.044,0.058,0.143,0.1,0.218,0.104c0.266,0.013,0.533,0.015,0.798-0.001
		c0.087-0.005,0.2-0.057,0.249-0.125c0.831-1.153,1.899-2.037,3.148-2.687c2.194-1.142,4.548-1.723,7.014-1.762
		c2.641-0.042,5.284,0.001,7.925,0.003c1.932,0.002,3.864-0.002,5.796-0.004c0.27,0,0.27-0.003,0.274-0.268
		c0.001-0.096,0.002-0.191,0.002-0.287c0.001-14.077,0.001-28.154,0.004-42.23c0-2.088,0.015-4.177,0.023-6.265
		c0.001-0.289-0.015-0.305-0.311-0.305c-5.994,0-11.988,0-17.982,0c-0.075,0-0.152-0.007-0.225,0.008
		c-1.298,0.269-2.506,0.741-3.548,1.585c-0.729,0.591-1.311,1.311-1.815,2.096c-0.363,0.566-1.29,0.585-1.706,0.042
		c-0.497-0.648-1.078-1.216-1.747-1.687c-1.227-0.864-2.602-1.391-4.055-1.721c-0.603-0.137-1.219-0.306-1.83-0.309
		c-5.384-0.025-10.771-0.014-16.157-0.02c-0.22,0-0.273,0.087-0.264,0.274C7.692,3.138,7.71,3.445,7.71,3.751
		c0.001,2.144-0.004,4.287-0.004,6.431c0,13.79,0,27.58,0,41.37C7.706,51.666,7.706,51.78,7.706,51.909z M3.597,6.814
		c0,0.129,0,0.23,0,0.331c0,16.221,0,32.441,0,48.662c0,0.362-0.027,0.321,0.317,0.321c6.206,0.002,12.411,0.002,18.617,0.007
		c0.38,0,0.769,0.006,1.14,0.081c1.536,0.311,2.973,0.887,4.33,1.669c1.184,0.683,2.233,1.541,3.233,2.464
		c0.062,0.058,0.13,0.109,0.225,0.189c0.008-0.096,0.016-0.148,0.016-0.199c0.002-0.526-0.001-1.051,0.008-1.577
		c0.002-0.144-0.037-0.205-0.187-0.222c-0.468-0.052-0.789-0.302-0.962-0.744c-0.032-0.08-0.091-0.152-0.146-0.221
		c-1.586-2.034-3.711-3.101-6.232-3.403c-1.055-0.126-2.123-0.189-3.185-0.194c-3.822-0.018-7.645,0.003-11.468,0.003
		c-0.768,0-1.542,0.092-2.298-0.14c-0.351-0.108-0.64-0.296-0.874-0.574c-0.372-0.442-0.485-0.978-0.489-1.527
		c-0.014-2.355-0.007-4.71-0.007-7.066c0-12.418-0.001-24.836-0.004-37.254c0-0.161-0.032-0.324-0.068-0.482
		C5.553,6.888,5.48,6.82,5.435,6.819C4.835,6.811,4.235,6.814,3.597,6.814z M33.553,60.571c0.082-0.074,0.133-0.118,0.181-0.165
		c1.627-1.61,3.497-2.841,5.648-3.644c1.116-0.417,2.252-0.687,3.452-0.654c0.737,0.02,1.474,0.014,2.211,0.015
		c5.372,0.002,10.745,0.002,16.117,0.009c0.213,0,0.259-0.064,0.259-0.267c-0.005-16.254-0.004-32.507-0.004-48.761
		c0-0.079,0-0.159,0-0.259c-0.501,0-0.971,0-1.441,0c-0.612,0-0.612,0-0.612,0.617c0,11.305-0.001,22.609-0.001,33.914
		c0,3.372,0.007,6.745-0.008,10.117c-0.002,0.416-0.07,0.848-0.199,1.242c-0.092,0.281-0.301,0.553-0.525,0.754
		c-0.473,0.424-1.088,0.489-1.691,0.49c-3.611,0.01-7.222,0.002-10.833,0.009c-1.289,0.002-2.581-0.02-3.867,0.058
		c-1.811,0.11-3.514,0.654-5.112,1.514c-1.029,0.553-1.866,1.33-2.524,2.288c-0.239,0.348-0.48,0.644-0.926,0.685
		c-0.145,0.014-0.148,0.111-0.148,0.219c0.002,0.553,0.003,1.106,0.005,1.659C33.535,60.45,33.543,60.489,33.553,60.571z"/>
	<path fill="#0b80ba" d="M37.708,33.797c0.315-2.972,1.035-5.979,2.865-8.623c0.629-0.908,1.363-1.721,2.194-2.448
		c0.201-0.176,0.201-0.207,0.023-0.36c-1.761-1.515-2.99-3.397-3.812-5.556c-0.605-1.59-0.996-3.235-1.216-4.92
		c-0.038-0.29-0.054-0.584-0.058-0.877c-0.009-0.578,0.356-1.01,0.886-1.07c0.5-0.056,0.995,0.297,1.102,0.835
		c0.097,0.486,0.145,0.983,0.212,1.475c0.032,0.236,0.051,0.474,0.092,0.709c0.009,0.05,0.084,0.099,0.139,0.128
		c0.038,0.02,0.094,0.004,0.141,0.004c2.962,0.001,5.924,0.003,8.887,0.004c0.075,0,0.15,0,0.225-0.004
		c0.262-0.016,0.408-0.131,0.447-0.389c0.089-0.585,0.165-1.173,0.244-1.759c0.074-0.55,0.446-0.956,0.923-1.002
		c0.589-0.057,1.112,0.397,1.101,0.999c-0.008,0.434-0.061,0.869-0.124,1.3c-0.2,1.375-0.496,2.729-0.955,4.044
		c-0.827,2.369-2.13,4.424-4.018,6.093c-0.123,0.109-0.155,0.196-0.018,0.311c2.393,2.003,3.704,4.643,4.484,7.599
		c0.306,1.161,0.517,2.338,0.629,3.532c0.017,0.18,0.004,0.371-0.038,0.547c-0.104,0.431-0.395,0.673-0.834,0.726
		c-0.4,0.048-0.749-0.076-0.939-0.436c-0.129-0.245-0.194-0.534-0.243-0.811c-0.083-0.469-0.126-0.944-0.196-1.415
		c-0.052-0.351-0.19-0.467-0.549-0.469c-0.628-0.004-1.256,0-1.884,0c-2.273,0-4.546,0.002-6.819-0.004
		c-0.467-0.001-0.63,0.171-0.669,0.579c-0.055,0.568-0.13,1.137-0.237,1.698c-0.123,0.641-0.61,0.955-1.227,0.841
		C37.955,34.979,37.674,34.571,37.708,33.797z M49.21,29.823c-0.205-0.522-0.394-0.995-0.577-1.47
		c-0.198-0.513-0.342-0.613-0.9-0.609c-0.805,0.005-1.609,0.009-2.414,0.014c-1.043,0.007-2.087,0.015-3.13,0.023
		c-0.58,0.004-0.991,0.253-1.179,0.82c-0.1,0.303-0.201,0.606-0.296,0.91c-0.096,0.309-0.093,0.311,0.22,0.311c2.667,0,5.333,0,8,0
		C49.014,29.823,49.094,29.823,49.21,29.823z M49.232,15.222c-2.905,0-5.764,0-8.663,0c0.25,0.587,0.49,1.141,0.721,1.698
		c0.1,0.242,0.29,0.347,0.528,0.348c2.054,0.006,4.108,0.005,6.161,0.001c0.196,0,0.4-0.059,0.485-0.248
		C48.728,16.433,48.971,15.836,49.232,15.222z M42.772,19.517c0.088,0.082,0.125,0.121,0.166,0.155
		c0.55,0.467,1.101,0.934,1.652,1.401c0.237,0.2,0.387,0.202,0.628-0.001c0.547-0.46,1.091-0.925,1.639-1.385
		c0.052-0.043,0.117-0.07,0.176-0.105c-0.011-0.032-0.022-0.065-0.033-0.097c-0.086-0.031-0.172-0.087-0.258-0.088
		c-1.226-0.006-2.453-0.006-3.679,0.001C42.975,19.398,42.889,19.467,42.772,19.517z M42.842,25.448
		c-0.003,0.029-0.006,0.058-0.009,0.087c0.099,0.03,0.198,0.085,0.297,0.086c1.187,0.006,2.373,0.004,3.56,0.004
		c0.041,0,0.087,0.011,0.121-0.005c0.045-0.02,0.099-0.054,0.114-0.094c0.013-0.035-0.011-0.104-0.042-0.131
		c-0.576-0.491-1.152-0.981-1.734-1.464c-0.145-0.121-0.326-0.135-0.473-0.014C44.06,24.42,43.452,24.936,42.842,25.448z"/>
	<path fill="#0b80ba" d="M20.088,26.75c2.327,0,4.655-0.001,6.982,0.002c0.163,0,0.33,0.005,0.488,0.04
		c0.491,0.111,0.796,0.496,0.797,0.98c0.001,0.469-0.315,0.867-0.798,0.987c-0.144,0.036-0.296,0.049-0.445,0.049
		c-4.662,0.002-9.323,0.002-13.985,0c-0.149,0-0.301-0.012-0.446-0.042c-0.546-0.114-0.855-0.511-0.831-1.05
		c0.023-0.515,0.38-0.897,0.93-0.937c0.51-0.037,1.023-0.033,1.534-0.034c1.925-0.003,3.849-0.001,5.774-0.001
		C20.088,26.745,20.088,26.748,20.088,26.75z"/>
	<path fill="#0b80ba" d="M16.996,18.321c-1.289,0-2.578,0.001-3.868-0.002c-0.149,0-0.3-0.013-0.446-0.042
		c-0.532-0.106-0.858-0.509-0.842-1.025c0.016-0.517,0.345-0.88,0.883-0.964c0.154-0.024,0.312-0.039,0.468-0.039
		c2.551-0.001,5.102,0,7.653,0.004c0.156,0,0.315,0.013,0.467,0.044c0.532,0.107,0.829,0.468,0.826,0.986
		c-0.003,0.521-0.318,0.895-0.848,0.995c-0.146,0.028-0.297,0.041-0.446,0.041C19.561,18.322,18.279,18.321,16.996,18.321z"/>
	<path fill="#0b80ba" d="M17.003,36.194c1.283,0,2.565-0.001,3.848,0.002c0.142,0,0.286,0.012,0.426,0.037
		c0.566,0.101,0.876,0.47,0.863,1.015c-0.013,0.531-0.356,0.923-0.912,0.977c-0.44,0.043-0.885,0.039-1.328,0.04
		c-2.252,0.003-4.503,0.004-6.755-0.003c-0.214-0.001-0.438-0.033-0.641-0.1c-0.439-0.145-0.676-0.515-0.664-0.973
		c0.012-0.453,0.258-0.782,0.71-0.912c0.181-0.052,0.375-0.077,0.563-0.078C14.411,36.191,15.707,36.194,17.003,36.194z"/>
	<path fill="#0b80ba" d="M47.991,39.291c-1.283,0-2.565,0.002-3.848-0.002c-0.163,0-0.328-0.014-0.487-0.048
		c-0.514-0.112-0.815-0.487-0.807-0.986c0.008-0.517,0.332-0.904,0.857-0.99c0.24-0.039,0.489-0.044,0.733-0.044
		c2.476-0.003,4.953-0.004,7.429,0.003c0.214,0.001,0.437,0.038,0.639,0.109c0.44,0.155,0.663,0.519,0.643,0.984
		c-0.019,0.443-0.264,0.766-0.708,0.893c-0.181,0.052-0.375,0.078-0.563,0.079C50.584,39.295,49.287,39.292,47.991,39.291
		C47.991,39.292,47.991,39.292,47.991,39.291z"/>
	<path fill="#0b80ba" d="M41.787,44.544c-1.31,0-2.62,0.006-3.929-0.006c-0.225-0.002-0.467-0.044-0.669-0.136
		c-0.416-0.188-0.621-0.66-0.525-1.094c0.101-0.459,0.471-0.777,0.96-0.804c0.32-0.018,0.641-0.014,0.962-0.014
		c2.36,0.001,4.721,0.003,7.081,0.007c0.162,0,0.329,0.007,0.487,0.042c0.529,0.117,0.83,0.521,0.789,1.034
		c-0.043,0.548-0.416,0.931-0.959,0.962c-0.333,0.019-0.668,0.011-1.002,0.012c-1.064,0.001-2.128,0-3.193,0
		C41.787,44.545,41.787,44.544,41.787,44.544z"/>
	<path fill="#0b80ba" d="M16.993,43.484c-1.289,0-2.579,0-3.868-0.001c-0.129,0-0.261-0.001-0.388-0.024
		c-0.602-0.107-0.925-0.503-0.889-1.079c0.034-0.534,0.438-0.922,1.023-0.941c0.661-0.021,1.323-0.015,1.985-0.016
		c1.978-0.002,3.957-0.001,5.935,0.001c0.156,0,0.316-0.002,0.469,0.028c0.6,0.115,0.923,0.531,0.88,1.113
		c-0.039,0.517-0.444,0.887-1.034,0.904c-0.682,0.019-1.364,0.013-2.046,0.015C18.371,43.486,17.682,43.484,16.993,43.484z"/>
	<path fill="#0b80ba" d="M24.225,13.076c-0.934,0-1.869,0.001-2.803-0.001c-0.136,0-0.273-0.01-0.407-0.032
		c-0.584-0.093-0.888-0.453-0.884-1.036c0.004-0.545,0.318-0.89,0.904-0.97c0.202-0.028,0.407-0.031,0.611-0.032
		c1.8-0.002,3.601-0.003,5.401,0.001c0.169,0,0.342,0.014,0.506,0.053c0.51,0.121,0.815,0.52,0.798,1.02
		c-0.016,0.475-0.359,0.862-0.858,0.954c-0.153,0.028-0.311,0.04-0.467,0.041C26.094,13.078,25.16,13.076,24.225,13.076z"/>
	<path fill="#0b80ba" d="M24.231,21.488c0.976,0,1.951-0.003,2.927,0.003c0.161,0.001,0.328,0.026,0.481,0.074
		c0.483,0.152,0.757,0.573,0.713,1.064c-0.042,0.467-0.4,0.839-0.895,0.891c-0.338,0.035-0.68,0.038-1.021,0.038
		c-1.678,0.001-3.356-0.001-5.034-0.01c-0.202-0.001-0.411-0.025-0.605-0.078c-0.385-0.107-0.629-0.42-0.66-0.798
		c-0.04-0.49,0.134-0.872,0.518-1.042c0.187-0.083,0.405-0.132,0.61-0.135C22.253,21.481,23.242,21.488,24.231,21.488z"/>
	<path fill="#0b80ba" d="M24.204,32.992c-0.962,0-1.923,0.001-2.885-0.001c-0.116,0-0.234,0-0.346-0.022
		c-0.595-0.115-0.884-0.512-0.837-1.135c0.038-0.504,0.443-0.877,1.004-0.883c1.337-0.013,2.674-0.011,4.01-0.012
		c0.655-0.001,1.31,0.001,1.964,0.006c0.142,0.001,0.288,0.008,0.425,0.041c0.545,0.131,0.864,0.566,0.813,1.089
		c-0.049,0.497-0.463,0.893-0.997,0.909c-0.702,0.021-1.405,0.013-2.107,0.016c-0.348,0.002-0.696,0-1.044,0
		C24.204,32.997,24.204,32.995,24.204,32.992z"/>
	<path fill="#0b80ba" d="M14.919,23.53c-0.715,0-1.432,0.027-2.146-0.008c-0.581-0.029-0.955-0.486-0.929-1.039
		c0.027-0.56,0.452-0.986,1.022-0.989c1.37-0.008,2.741-0.009,4.111,0c0.574,0.004,0.999,0.421,1.02,0.963
		c0.023,0.609-0.314,1.034-0.932,1.067c-0.713,0.038-1.43,0.009-2.146,0.009C14.919,23.531,14.919,23.531,14.919,23.53z"/>
	<path fill="#0b80ba" d="M14.934,11.004c0.648,0,1.296-0.004,1.943,0.001c0.548,0.005,0.937,0.259,1.074,0.688
		c0.235,0.737-0.244,1.366-1.069,1.375c-1.07,0.012-2.141,0.007-3.212,0.008c-0.239,0-0.477-0.001-0.716-0.005
		c-0.655-0.012-1.108-0.432-1.114-1.031c-0.006-0.59,0.448-1.017,1.11-1.033c0.334-0.008,0.668-0.004,1.002-0.005
		c0.327-0.001,0.655,0,0.982,0C14.934,11.003,14.934,11.004,14.934,11.004z"/>
	<path fill="#0b80ba" d="M14.917,32.989c-0.689,0-1.379,0.012-2.068-0.003c-0.649-0.015-1.081-0.544-0.993-1.184
		c0.065-0.474,0.482-0.843,1.003-0.851c0.914-0.014,1.829-0.011,2.743-0.012c0.45-0.001,0.901-0.002,1.351,0.009
		c0.64,0.016,1.052,0.43,1.047,1.038c-0.004,0.593-0.421,0.996-1.057,1.004c-0.676,0.009-1.351,0.002-2.027,0.002
		C14.917,32.99,14.917,32.99,14.917,32.989z"/>
	<path fill="#0b80ba" d="M38.705,39.256c-0.415,0-0.836,0.04-1.245-0.01c-0.515-0.064-0.84-0.519-0.816-1.039
		c0.023-0.507,0.404-0.935,0.918-0.952c0.77-0.026,1.541-0.025,2.311,0.004c0.489,0.018,0.836,0.432,0.857,0.933
		c0.023,0.564-0.263,0.983-0.781,1.055c-0.41,0.057-0.829,0.046-1.244,0.064C38.705,39.292,38.705,39.274,38.705,39.256z"/>
	<path fill="#0b80ba" d="M26.3,36.228c0.408,0,0.821-0.039,1.224,0.01c0.51,0.062,0.832,0.482,0.83,0.984
		c-0.002,0.485-0.348,0.908-0.831,1.003c-0.14,0.027-0.284,0.043-0.426,0.042c-0.641-0.004-1.283,0.014-1.921-0.034
		c-0.607-0.046-0.931-0.476-0.908-1.094c0.02-0.542,0.399-0.909,0.989-0.936c0.347-0.016,0.696-0.003,1.043-0.003
		C26.3,36.208,26.3,36.218,26.3,36.228z"/>
	<path fill="#0b80ba" d="M26.284,18.29c-0.388,0-0.78,0.037-1.162-0.009c-0.566-0.067-0.872-0.477-0.856-1.057
		c0.015-0.533,0.349-0.919,0.905-0.942c0.755-0.031,1.512-0.029,2.267,0.002c0.527,0.021,0.893,0.438,0.916,0.951
		c0.022,0.503-0.321,0.967-0.826,1.038c-0.409,0.058-0.828,0.046-1.242,0.064C26.284,18.322,26.284,18.306,26.284,18.29z"/>
	<path fill="#0b80ba" d="M27.295,42.466c0,0.588-0.415,1.01-0.996,1.01c-0.574,0-1.029-0.455-1.023-1.022
		c0.006-0.553,0.468-1.02,1.011-1.023C26.853,41.428,27.295,41.882,27.295,42.466z"/>
</g>
</svg>
