<?xml version="1.0" encoding="UTF-8"?>
<svg width="92px" height="38px" viewBox="0 0 92 38" version="1.1" xmlns="http://www.w3.org/2000/svg" xmlns:xlink="http://www.w3.org/1999/xlink">
    <!-- Generator: Sketch 54.1 (76490) - https://sketchapp.com -->
    <title>trustmark/floating</title>
    <desc>Created with Sketch.</desc>
    <defs>
        <path d="M3,0 L89,0 C90.6568542,-3.04359188e-16 92,1.34314575 92,3 L92,38 L0,38 L0,3 C-2.02906125e-16,1.34314575 1.34314575,3.04359188e-16 3,0 Z" id="path-1"></path>
        <filter x="-4.9%" y="-11.8%" width="109.8%" height="123.7%" filterUnits="objectBoundingBox" id="filter-2">
            <feOffset dx="0" dy="0" in="SourceAlpha" result="shadowOffsetOuter1"></feOffset>
            <feGaussianBlur stdDeviation="1.5" in="shadowOffsetOuter1" result="shadowBlurOuter1"></feGaussianBlur>
            <feColorMatrix values="0 0 0 0 0   0 0 0 0 0   0 0 0 0 0  0 0 0 0.2 0" type="matrix" in="shadowBlurOuter1"></feColorMatrix>
        </filter>
    </defs>
    <g id="trustmark/floating" stroke="none" stroke-width="1" fill="none" fill-rule="evenodd">
        <g id="mixin/trustmark/shadow">
            <g id="bg">
                <use fill="black" fill-opacity="1" filter="url(#filter-2)" xlink:href="#path-1"></use>
                <use fill="#FFFFFF" fill-rule="evenodd" xlink:href="#path-1"></use>
            </g>
        </g>
        <path d="M2,0 L90,0 C91.1045695,-2.02906125e-16 92,0.8954305 92,2 L92,38 L0,38 L0,2 C-1.3527075e-16,0.8954305 0.8954305,2.02906125e-16 2,0 Z" id="bg" fill="#FFFFFF"></path>
        <g id="logo/trustedsite" transform="translate(5.000000, 6.000000)">
            <g id="logo/ts-full-color">
                <g id="Logo">
                    <path d="M80.5643047,4.65882667 L80.5643047,5.17626667 L80.2564953,5.17626667 L80.2564953,3.89050667 C80.377999,3.86698667 80.5481042,3.85130667 80.766811,3.85130667 C81.0179187,3.85130667 81.1313222,3.89050667 81.2285251,3.94538667 C81.3014274,4.00026667 81.3581291,4.10218667 81.3581291,4.22762667 C81.3581291,4.36874667 81.2447256,4.47850667 81.0827207,4.52554667 L81.0827207,4.54122667 C81.2123246,4.58826667 81.2852269,4.68234667 81.3257281,4.85482667 C81.3662294,5.05082667 81.3905301,5.12922667 81.4229311,5.17626667 L81.0908209,5.17626667 C81.0503197,5.12922667 81.0260189,5.01162667 80.9855177,4.86266667 C80.9612169,4.72154667 80.8802144,4.65882667 80.7101092,4.65882667 L80.5643047,4.65882667 Z M80.572405,4.07866667 L80.572405,4.44714667 L80.7182095,4.44714667 C80.8883147,4.44714667 81.0260189,4.39226667 81.0260189,4.25898667 C81.0260189,4.14138667 80.9369162,4.06298667 80.7425102,4.06298667 C80.6615077,4.06298667 80.604806,4.07082667 80.572405,4.07866667 Z M80.7749112,3.21626667 C81.5444349,3.21626667 82.135753,3.78858667 82.135753,4.50202667 C82.135753,5.23114667 81.5444349,5.80346667 80.7749112,5.80346667 C80.0134878,5.80346667 79.4059691,5.23114667 79.4059691,4.50202667 C79.4059691,3.78858667 80.0134878,3.21626667 80.7749112,3.21626667 Z M80.7749112,3.47498667 C80.183593,3.47498667 79.7461796,3.93754667 79.7461796,4.50202667 C79.7461796,5.07434667 80.183593,5.52906667 80.7830115,5.52906667 C81.3662294,5.52906667 81.7955426,5.07434667 81.7955426,4.50986667 C81.7955426,3.93754667 81.3662294,3.47498667 80.7749112,3.47498667 Z" id="®" fill="#80C600"></path>
                    <path d="M77.5434889,7.10972807 C77.5434889,6.63331053 77.3339887,5.83521228 76.416528,5.83521228 C75.5778268,5.83521228 75.2368857,6.58190351 75.1843794,7.10972807 L77.5434889,7.10972807 Z M75.197681,8.44871754 C75.2631389,9.2595386 76.0757619,9.64586491 77.0063491,9.64586491 C77.6875313,9.64586491 78.2381477,9.55577368 78.7754625,9.38831404 L79.0374691,10.7144088 C78.3821901,10.9717877 77.5828687,11.1005632 76.7177393,11.1005632 C74.5424019,11.1005632 73.2973017,9.86473158 73.2973017,7.89510351 C73.2973017,6.29856316 74.3064735,4.53490702 76.5343172,4.53490702 C78.604992,4.53490702 79.3913618,6.1183807 79.3913618,7.67606491 C79.3913618,8.01098421 79.3521571,8.30687544 79.3259039,8.44871754 L75.197681,8.44871754 Z" id="Fill-19" fill="#80C600"></path>
                    <path d="M71.5673055,2.87418526 L71.5673055,4.67652561 L72.9958279,4.67652561 L72.9958279,6.11850105 L71.5673055,6.11850105 L71.5673055,8.39708702 C71.5673055,9.15667298 71.7509027,9.50431509 72.3536754,9.50431509 C72.6027304,9.50431509 72.7992791,9.47852561 72.9433215,9.45273614 L72.9564481,10.9332239 C72.6942665,11.0362098 72.2225846,11.1006835 71.6590166,11.1006835 C71.0168641,11.1006835 70.4795493,10.8816449 70.1650364,10.5599642 C69.7981921,10.1865326 69.614595,9.58151158 69.614595,8.69315018 L69.614595,6.11850105 L68.7627672,6.11850105 L68.7627672,4.67652561 L69.614595,4.67652561 L69.614595,3.3119186 L71.5673055,2.87418526 Z" id="Fill-18" fill="#80C600"></path>
                    <path d="M65.9318532,10.9718737 L67.9239435,10.9718737 L67.9239435,4.67649123 L65.9318532,4.67649123 L65.9318532,10.9718737 Z M67.9894014,2.92572982 C67.9894014,3.46644912 67.5702259,3.90401053 66.9149468,3.90401053 C66.2857459,3.90401053 65.8663953,3.46644912 65.8795219,2.92572982 C65.8663953,2.35922105 66.2857459,1.93438246 66.9280734,1.93438246 C67.5702259,1.93438246 67.9764499,2.35922105 67.9894014,2.92572982 L67.9894014,2.92572982 Z" id="Fill-16" fill="#80C600"></path>
                    <path d="M59.3136049,8.95066667 C59.8507447,9.22094035 60.6764943,9.49138596 61.528147,9.49138596 C62.4457827,9.49138596 62.9305912,9.11812632 62.9305912,8.55161754 C62.9305912,8.01089825 62.5114156,7.70176842 61.4495625,7.32850877 C59.9818355,6.82647368 59.0251701,6.02820351 59.0251701,4.76675439 C59.0251701,3.28626667 60.2832219,2.15324912 62.3670232,2.15324912 C63.3632434,2.15324912 64.0969319,2.35922105 64.6212951,2.59098246 L64.1755164,4.17445614 C63.8217987,4.00716842 63.1927728,3.76251228 62.3278185,3.76251228 C61.4626891,3.76251228 61.0433385,4.14866667 61.0433385,4.59929474 C61.0433385,5.15290877 61.5414486,5.39739298 62.6815362,5.82240351 C64.2411493,6.38874035 64.9750128,7.18701053 64.9750128,8.40994737 C64.9750128,9.86464561 63.8349253,11.1006491 61.4103578,11.1006491 C60.4013611,11.1006491 59.4051409,10.8430982 58.9073809,10.5728246 L59.3136049,8.95066667 Z" id="Fill-14" fill="#80C600"></path>
                    <path d="M55.6697878,7.3414207 C55.6697878,7.23843474 55.6566613,7.09676456 55.6435347,6.99395053 C55.5255704,6.46595404 55.0930933,6.0282207 54.477194,6.0282207 C53.5730349,6.0282207 53.101003,6.82649088 53.101003,7.81783825 C53.101003,8.88638211 53.6384928,9.55570491 54.4640674,9.55570491 C55.040762,9.55570491 55.4993173,9.16955053 55.6172815,8.61593649 C55.6566613,8.47426632 55.6697878,8.33276807 55.6697878,8.16530842 L55.6697878,7.3414207 Z M57.6617031,1.83141368 L57.6617031,9.09235404 C57.6617031,9.80036105 57.6879563,10.5470523 57.7142095,10.9718909 L55.944921,10.9718909 L55.85321,10.0448453 L55.8269568,10.0448453 C55.4207328,10.7530242 54.6474895,11.1135611 53.8217399,11.1135611 C52.3016816,11.1135611 51.0828345,9.83904526 51.0828345,7.88214 C51.069883,5.75794702 52.4196458,4.53483825 53.9530058,4.53483825 C54.7393756,4.53483825 55.3552749,4.80528386 55.6435347,5.24301719 L55.6697878,5.24301719 L55.6697878,1.83141368 L57.6617031,1.83141368 Z" id="Fill-12" fill="#323835"></path>
                    <path d="M48.7497856,7.10972807 C48.7497856,6.63331053 48.5401103,5.83521228 47.6228247,5.83521228 C46.7841235,5.83521228 46.4431824,6.58190351 46.390676,7.10972807 L48.7497856,7.10972807 Z M46.4039776,8.44871754 C46.4694355,9.2595386 47.2818835,9.64586491 48.2124708,9.64586491 C48.894003,9.64586491 49.4444444,9.55577368 49.9817592,9.38831404 L50.2437658,10.7144088 C49.5884868,10.9717877 48.7891653,11.1005632 47.924036,11.1005632 C45.7486986,11.1005632 44.5035984,9.86473158 44.5035984,7.89510351 C44.5035984,6.29856316 45.5127701,4.53490702 47.7406139,4.53490702 C49.8112886,4.53490702 50.5976585,6.1183807 50.5976585,7.67606491 C50.5976585,8.01098421 50.5582788,8.30687544 50.5322006,8.44871754 L46.4039776,8.44871754 Z" id="Fill-10" fill="#323835"></path>
                    <path d="M42.7997504,2.87418526 L42.7997504,4.67652561 L44.2282727,4.67652561 L44.2282727,6.11850105 L42.7997504,6.11850105 L42.7997504,8.39708702 C42.7997504,9.15667298 42.9833475,9.50431509 43.5861202,9.50431509 C43.8351753,9.50431509 44.031724,9.47852561 44.1757663,9.45273614 L44.1888929,10.9332239 C43.9267113,11.0362098 43.4550294,11.1006835 42.8914614,11.1006835 C42.249309,11.1006835 41.7119941,10.8816449 41.3974812,10.5599642 C41.0306369,10.1865326 40.8472148,9.58151158 40.8472148,8.69315018 L40.8472148,6.11850105 L39.9953871,6.11850105 L39.9953871,4.67652561 L40.8472148,4.67652561 L40.8472148,3.3119186 L42.7997504,2.87418526 Z" id="Fill-8" fill="#323835"></path>
                    <path d="M35.0542085,9.25960737 C35.4212278,9.47847404 36.1813445,9.73602491 36.7709906,9.73602491 C37.3739383,9.73602491 37.6229934,9.52988105 37.6229934,9.20820035 C37.6229934,8.88634772 37.4264447,8.73178281 36.6794546,8.4872986 C35.3557699,8.04956526 34.8445332,7.34138632 34.8576598,6.59469509 C34.8576598,5.42333719 35.8799581,4.53497579 37.4656494,4.53497579 C38.2126395,4.53497579 38.8810451,4.70226351 39.2741426,4.89551263 L38.9202499,6.24722491 C38.6319901,6.09266 38.0815487,5.88668807 37.5311073,5.88668807 C37.0462988,5.88668807 36.7709906,6.07976526 36.7709906,6.40161789 C36.7709906,6.69785298 37.0200457,6.85224596 37.8064155,7.12251965 C39.0252625,7.53463544 39.5363242,8.13965649 39.5494508,9.06653018 C39.5494508,10.23806 38.6057369,11.1006319 36.7709906,11.1006319 C35.9322894,11.1006319 35.1852993,10.9202775 34.7004909,10.6628986 L35.0542085,9.25960737 Z" id="Fill-6" fill="#323835"></path>
                    <path d="M33.9531507,8.95066667 C33.9531507,9.77455439 33.9792289,10.4442211 34.005657,10.9718737 L32.2757484,10.9718737 L32.1838623,10.0836842 L32.1446576,10.0836842 C31.8956025,10.4698386 31.2926548,11.1135439 30.1394407,11.1135439 C28.8420092,11.1135439 27.8853438,10.3152737 27.8853438,8.37143509 L27.8853438,4.67649123 L29.8905606,4.67649123 L29.8905606,8.06247719 C29.8905606,8.97628421 30.191947,9.52989825 30.8866058,9.52989825 C31.4368722,9.52989825 31.7513851,9.1566386 31.8824759,8.8476807 C31.9349823,8.7318 31.9479338,8.57723509 31.9479338,8.42284211 L31.9479338,4.67649123 L33.9531507,4.67649123 L33.9531507,8.95066667 Z" id="Fill-4" fill="#323835"></path>
                    <path d="M23.1016667,6.74915684 C23.1016667,5.82228316 23.0755886,5.21726211 23.0493354,4.67654281 L24.7661175,4.67654281 L24.8315754,5.83517789 L24.8840817,5.83517789 C25.2117212,4.92119895 25.9979161,4.53487263 26.6138154,4.53487263 C26.7974125,4.53487263 26.8891236,4.53487263 27.033341,4.56066211 L27.033341,6.40168667 C26.8891236,6.37589719 26.718828,6.35010772 26.4960262,6.35010772 C25.7621626,6.35010772 25.2640526,6.73643404 25.1329617,7.34145509 C25.1068836,7.4700586 25.093582,7.62462351 25.093582,7.77918842 L25.093582,10.9719253 L23.1016667,10.9719253 L23.1016667,6.74915684 Z" id="Fill-2" fill="#323835"></path>
                    <polygon id="Fill-1" fill="#323835" points="18.7636634 3.94271193 16.3914273 3.94271193 16.3914273 2.29493649 23.1801462 2.29493649 23.1801462 3.94271193 20.7687053 3.94271193 20.7687053 10.9718909 18.7636634 10.9718909"></polygon>
                    <path d="M9.93916302,13.0666667 L0,13.0666667 L0,3.44696222 C0,1.54322903 1.59447778,0 3.56125192,0 L13.5004149,0 L13.5004149,9.61970445 C13.5004149,11.5234376 11.9059372,13.0666667 9.93916302,13.0666667" id="Fill-20" fill="#80C600"></path>
                    <path d="M10.7391029,2.6817786 C10.6290147,2.57346281 10.4485679,2.57346281 10.3383046,2.6817786 L5.32885031,7.60275404 C5.21858701,7.71106982 5.03831526,7.71106982 4.92822698,7.60275404 L3.10433197,5.81124526 C2.99424369,5.70292947 2.81379692,5.70292947 2.70353362,5.81124526 L1.5013136,6.99223123 C1.39122532,7.10054702 1.39122532,7.27763474 1.5013136,7.38595053 L4.92822698,10.7521646 C5.03831526,10.8603084 5.21858701,10.8603084 5.32885031,10.7521646 L11.941498,4.25648386 C12.0515863,4.14816807 12.0515863,3.97108035 11.941498,3.86276456 L10.7391029,2.6817786 Z" id="Fill-21" fill="#FEFEFE"></path>
                </g>
            </g>
        </g>
        <rect id="Rectangle" fill="#F2F3F3" fill-rule="nonzero" x="0" y="25" width="92" height="13"></rect>
        <path d="M8.7109375,28.8007812 C8.17447648,28.8007812 7.7526057,28.9908835 7.4453125,29.3710938 C7.1380193,29.751304 6.984375,30.2760383 6.984375,30.9453125 C6.984375,31.6458368 7.13215998,32.1757795 7.42773438,32.5351562 C7.72330877,32.894533 8.15103887,33.0742188 8.7109375,33.0742188 C8.95312621,33.0742188 9.18749887,33.0501304 9.4140625,33.0019531 C9.64062613,32.9537758 9.87630086,32.8919275 10.1210938,32.8164062 L10.1210938,33.6171875 C9.67317484,33.7864592 9.16536742,33.8710938 8.59765625,33.8710938 C7.76171457,33.8710938 7.11979391,33.6178411 6.671875,33.1113281 C6.22395609,32.6048152 6,31.880213 6,30.9375 C6,30.343747 6.10872287,29.824221 6.32617188,29.3789062 C6.54362088,28.9335915 6.85807086,28.5924491 7.26953125,28.3554688 C7.68099164,28.1184884 8.16405973,28 8.71875,28 C9.30208625,28 9.84114336,28.1223946 10.3359375,28.3671875 L10,29.1445312 C9.8072907,29.053385 9.6035167,28.9733076 9.38867188,28.9042969 C9.17382705,28.8352861 8.94791785,28.8007812 8.7109375,28.8007812 Z M15.2820312,33.7929688 L12.0515625,33.7929688 L12.0515625,28.0820312 L15.2820312,28.0820312 L15.2820312,28.8710938 L12.9851562,28.8710938 L12.9851562,30.4257812 L15.1375,30.4257812 L15.1375,31.2070312 L12.9851562,31.2070312 L12.9851562,33 L15.2820312,33 L15.2820312,33.7929688 Z M18.15,30.7382812 L18.7984375,30.7382812 C19.2333355,30.7382812 19.5484365,30.6575529 19.74375,30.4960938 C19.9390635,30.3346346 20.0367187,30.0950537 20.0367187,29.7773438 C20.0367187,29.4544255 19.931251,29.222657 19.7203125,29.0820312 C19.5093739,28.9414055 19.1916688,28.8710938 18.7671875,28.8710938 L18.15,28.8710938 L18.15,30.7382812 Z M18.15,31.5117188 L18.15,33.7929688 L17.2164062,33.7929688 L17.2164062,28.0820312 L18.8296875,28.0820312 C19.5666703,28.0820312 20.1122378,28.2200507 20.4664062,28.4960938 C20.8205747,28.7721368 20.9976562,29.1887993 20.9976562,29.7460938 C20.9976562,30.4570348 20.6278683,30.9635402 19.8882812,31.265625 L21.5015625,33.7929688 L20.4390625,33.7929688 L19.071875,31.5117188 L18.15,31.5117188 Z M25.0023437,33.7929688 L24.06875,33.7929688 L24.06875,28.8828125 L22.3890625,28.8828125 L22.3890625,28.0820312 L26.6820312,28.0820312 L26.6820312,28.8828125 L25.0023437,28.8828125 L25.0023437,33.7929688 Z M28.2570312,33.7929688 L28.2570312,28.0820312 L29.190625,28.0820312 L29.190625,33.7929688 L28.2570312,33.7929688 Z M32.3242187,33.7929688 L31.3984374,33.7929688 L31.3984374,28.0820312 L34.6210937,28.0820312 L34.6210937,28.8710938 L32.3242187,28.8710938 L32.3242187,30.65625 L34.4765624,30.65625 L34.4765624,31.4492188 L32.3242187,31.4492188 L32.3242187,33.7929688 Z M36.3562499,33.7929688 L36.3562499,28.0820312 L37.2898437,28.0820312 L37.2898437,33.7929688 L36.3562499,33.7929688 Z M42.7281249,33.7929688 L39.4976562,33.7929688 L39.4976562,28.0820312 L42.7281249,28.0820312 L42.7281249,28.8710938 L40.4312499,28.8710938 L40.4312499,30.4257812 L42.5835937,30.4257812 L42.5835937,31.2070312 L40.4312499,31.2070312 L40.4312499,33 L42.7281249,33 L42.7281249,33.7929688 Z M49.3070312,30.8828125 C49.3070312,31.8255255 49.045315,32.5462215 48.5218749,33.0449219 C47.9984348,33.5436223 47.2445361,33.7929688 46.2601562,33.7929688 L44.6624999,33.7929688 L44.6624999,28.0820312 L46.4281249,28.0820312 C47.3369836,28.0820312 48.0440078,28.3268205 48.5492187,28.8164062 C49.0544295,29.305992 49.3070312,29.9947872 49.3070312,30.8828125 Z M48.3226562,30.9140625 C48.3226562,29.5468682 47.6833396,28.8632812 46.4046874,28.8632812 L45.5960937,28.8632812 L45.5960937,33.0078125 L46.2601562,33.0078125 C47.635163,33.0078125 48.3226562,32.3099028 48.3226562,30.9140625 Z M57.3046874,32.2421875 C57.3046874,32.7500025 57.1210955,33.1484361 56.7539061,33.4375 C56.3867168,33.7265639 55.8802114,33.8710938 55.2343749,33.8710938 C54.5885383,33.8710938 54.0598978,33.7708343 53.6484374,33.5703125 L53.6484374,32.6875 C53.9088553,32.8098964 54.1855453,32.9062496 54.4785155,32.9765625 C54.7714857,33.0468754 55.0442695,33.0820312 55.2968749,33.0820312 C55.6666684,33.0820312 55.9394521,33.0117195 56.1152343,32.8710938 C56.2910164,32.730468 56.3789061,32.5416679 56.3789061,32.3046875 C56.3789061,32.0911448 56.2981778,31.910157 56.1367186,31.7617188 C55.9752595,31.6132805 55.6419295,31.437501 55.1367186,31.234375 C54.6158827,31.0234364 54.2486989,30.7825534 54.0351561,30.5117188 C53.8216134,30.2408841 53.7148436,29.9153665 53.7148436,29.5351562 C53.7148436,29.0585914 53.8841128,28.6835951 54.2226561,28.4101562 C54.5611995,28.1367174 55.015622,28 55.5859374,28 C56.1328151,28 56.6770805,28.1197905 57.2187499,28.359375 L56.9218749,29.1210938 C56.4140598,28.907551 55.9609394,28.8007812 55.5624999,28.8007812 C55.260415,28.8007812 55.0312507,28.8665358 54.8749999,28.9980469 C54.7187491,29.1295579 54.6406249,29.3033843 54.6406249,29.5195312 C54.6406249,29.6679695 54.6718746,29.7949213 54.7343749,29.9003906 C54.7968752,30.0058599 54.8997387,30.1054683 55.0429686,30.1992188 C55.1861985,30.2929692 55.4440084,30.4166659 55.8164061,30.5703125 C56.2356791,30.7447925 56.5429677,30.9075513 56.7382811,31.0585938 C56.9335946,31.2096362 57.0768223,31.3802074 57.1679686,31.5703125 C57.2591149,31.7604176 57.3046874,31.9843737 57.3046874,32.2421875 Z M62.3406249,33.7929688 L59.1101561,33.7929688 L59.1101561,28.0820312 L62.3406249,28.0820312 L62.3406249,28.8710938 L60.0437499,28.8710938 L60.0437499,30.4257812 L62.1960936,30.4257812 L62.1960936,31.2070312 L60.0437499,31.2070312 L60.0437499,33 L62.3406249,33 L62.3406249,33.7929688 Z M66.7046874,28.8007812 C66.1682263,28.8007812 65.7463556,28.9908835 65.4390624,29.3710938 C65.1317692,29.751304 64.9781249,30.2760383 64.9781249,30.9453125 C64.9781249,31.6458368 65.1259098,32.1757795 65.4214842,32.5351562 C65.7170586,32.894533 66.1447887,33.0742188 66.7046874,33.0742188 C66.9468761,33.0742188 67.1812487,33.0501304 67.4078124,33.0019531 C67.634376,32.9537758 67.8700507,32.8919275 68.1148436,32.8164062 L68.1148436,33.6171875 C67.6669247,33.7864592 67.1591173,33.8710938 66.5914061,33.8710938 C65.7554644,33.8710938 65.1135438,33.6178411 64.6656249,33.1113281 C64.217706,32.6048152 63.9937499,31.880213 63.9937499,30.9375 C63.9937499,30.343747 64.1024727,29.824221 64.3199217,29.3789062 C64.5373707,28.9335915 64.8518207,28.5924491 65.2632811,28.3554688 C65.6747415,28.1184884 66.1578096,28 66.7124999,28 C67.2958361,28 67.8348932,28.1223946 68.3296874,28.3671875 L67.9937499,29.1445312 C67.8010406,29.053385 67.5972666,28.9733076 67.3824217,28.9042969 C67.1675769,28.8352861 66.9416677,28.8007812 66.7046874,28.8007812 Z M74.5218748,28.0820312 L74.5218748,31.7773438 C74.5218748,32.1992209 74.431381,32.5683578 74.2503905,32.8847656 C74.0694,33.2011735 73.8076838,33.4446606 73.4652342,33.6152344 C73.1227846,33.7858081 72.7132835,33.8710938 72.2367186,33.8710938 C71.5283817,33.8710938 70.977606,33.6835956 70.5843748,33.3085938 C70.1911437,32.9335919 69.9945311,32.417972 69.9945311,31.7617188 L69.9945311,28.0820312 L70.9320311,28.0820312 L70.9320311,31.6953125 C70.9320311,32.166669 71.041405,32.5143218 71.2601561,32.7382812 C71.4789072,32.9622407 71.8148413,33.0742188 72.2679686,33.0742188 C73.1481813,33.0742188 73.5882811,32.6119838 73.5882811,31.6875 L73.5882811,28.0820312 L74.5218748,28.0820312 Z M77.6164061,30.7382812 L78.2648436,30.7382812 C78.6997416,30.7382812 79.0148426,30.6575529 79.2101561,30.4960938 C79.4054696,30.3346346 79.5031248,30.0950537 79.5031248,29.7773438 C79.5031248,29.4544255 79.3976571,29.222657 79.1867186,29.0820312 C78.97578,28.9414055 78.6580749,28.8710938 78.2335936,28.8710938 L77.6164061,28.8710938 L77.6164061,30.7382812 Z M77.6164061,31.5117188 L77.6164061,33.7929688 L76.6828123,33.7929688 L76.6828123,28.0820312 L78.2960936,28.0820312 C79.0330764,28.0820312 79.5786439,28.2200507 79.9328123,28.4960938 C80.2869808,28.7721368 80.4640623,29.1887993 80.4640623,29.7460938 C80.4640623,30.4570348 80.0942744,30.9635402 79.3546873,31.265625 L80.9679686,33.7929688 L79.9054686,33.7929688 L78.5382811,31.5117188 L77.6164061,31.5117188 Z M85.7265623,33.7929688 L82.4960936,33.7929688 L82.4960936,28.0820312 L85.7265623,28.0820312 L85.7265623,28.8710938 L83.4296873,28.8710938 L83.4296873,30.4257812 L85.5820311,30.4257812 L85.5820311,31.2070312 L83.4296873,31.2070312 L83.4296873,33 L85.7265623,33 L85.7265623,33.7929688 Z" id="CERTIFIED-SECURE" fill-opacity="0.747377622" fill="#67666A"></path>
    </g>
</svg>